<?xml version="1.0" standalone="no"?>
<!DOCTYPE svg PUBLIC "-//W3C//DTD SVG 20010904//EN"
 "http://www.w3.org/TR/2001/REC-SVG-20010904/DTD/svg10.dtd">
<svg version="1.0" xmlns="http://www.w3.org/2000/svg"
 width="512.000000pt" height="512.000000pt" viewBox="0 0 512.000000 512.000000"
 preserveAspectRatio="xMidYMid meet">

<g transform="translate(0.000000,512.000000) scale(0.100000,-0.100000)"
fill="#000000" stroke="none">
<path d="M805 4751 c-87 -40 -115 -99 -115 -241 l0 -100 -147 0 c-135 0 -153
-2 -198 -24 -60 -28 -87 -56 -114 -116 -20 -45 -21 -57 -21 -1570 l0 -1525 24
-50 c28 -60 56 -87 116 -114 43 -20 63 -21 528 -21 l483 0 24 25 c30 29 31 54
4 88 l-20 26 -484 3 -484 3 -23 23 c-22 22 -23 30 -26 207 l-3 185 2211 0
2211 0 -3 -185 c-3 -177 -4 -185 -26 -207 l-23 -23 -1524 -3 -1524 -2 -20 -26
c-27 -35 -26 -59 4 -89 23 -23 31 -25 130 -25 l105 0 0 -224 c0 -124 4 -236
10 -250 l10 -26 -209 0 c-204 0 -208 0 -229 -23 -28 -30 -28 -68 1 -95 l23
-22 541 0 c501 0 542 1 561 18 31 26 35 65 11 96 l-20 26 -235 0 c-266 0 -293
5 -313 60 -7 21 -11 110 -11 236 l0 204 50 0 50 0 0 -180 c0 -167 1 -181 20
-200 19 -19 33 -20 410 -20 377 0 391 1 410 20 19 19 20 33 20 200 l0 180 50
0 50 0 0 -204 c0 -126 -4 -215 -11 -236 -15 -40 -58 -60 -134 -60 -42 0 -60
-5 -75 -20 -27 -27 -26 -71 3 -98 23 -22 27 -22 388 -22 l366 0 21 23 c28 30
28 68 -1 95 -22 21 -32 22 -230 22 l-207 0 10 26 c6 14 10 126 10 250 l0 224
748 0 747 0 50 24 c60 28 87 56 114 116 20 45 21 56 21 1570 0 1514 -1 1525
-21 1570 -27 60 -54 88 -114 116 -45 22 -63 24 -197 24 l-148 0 0 103 c-1 143
-31 203 -122 242 -56 23 -683 23 -716 -1 -12 -8 -22 -24 -22 -35 0 -18 -8 -19
-115 -19 -89 0 -115 3 -115 13 0 8 -10 23 -23 35 -21 20 -34 22 -146 22 -116
0 -123 -1 -146 -25 -14 -13 -25 -29 -25 -35 0 -6 -40 -10 -110 -10 -70 0 -110
4 -110 10 0 6 -11 22 -25 35 l-24 25 -943 0 c-895 0 -945 -1 -983 -19z m-115
-1771 l0 -1290 -170 0 -170 0 0 1261 0 1261 29 29 29 29 141 0 141 0 0 -1290z
m4051 1261 l29 -29 0 -1261 0 -1261 -170 0 -170 0 0 1290 0 1290 141 0 141 0
29 -29z m-451 -1441 l0 -1110 -1730 0 -1730 0 0 1110 0 1110 1730 0 1730 0 0
-1110z m-1440 -1940 l0 -130 -290 0 -290 0 0 130 0 130 290 0 290 0 0 -130z"/>
<path d="M2112 3167 c-451 -452 -449 -449 -399 -495 21 -20 34 -22 140 -22
l117 0 0 -298 0 -299 23 -21 c22 -21 32 -22 218 -22 259 0 239 -20 239 243 l0
197 110 0 110 0 0 -198 c0 -262 -20 -242 241 -242 191 0 196 0 217 23 22 23
22 29 22 320 l0 297 114 0 c99 0 117 3 140 21 57 44 60 40 -397 497 -332 332
-427 422 -447 422 -20 0 -115 -90 -448 -423z m763 -67 l310 -310 -68 0 c-112
0 -107 16 -107 -340 l0 -300 -100 0 -100 0 0 197 c0 264 21 243 -249 243 -273
0 -251 21 -251 -242 l0 -198 -100 0 -100 0 0 300 c0 356 5 340 -107 340 l-68
0 310 310 c170 171 312 310 315 310 3 0 145 -139 315 -310z"/>
</g>
</svg>
